<svg width="145" height="94" viewBox="0 0 145 94" fill="none" xmlns="http://www.w3.org/2000/svg">
<circle cx="141.479" cy="20.4787" r="2.84675" transform="rotate(2.30579 141.479 20.4787)" stroke="#7F80FE"/>
<path d="M3.59286 54.6297C5.17986 54.6915 6.38553 55.979 6.32358 57.4714C6.26138 58.9639 4.95235 60.1544 3.3652 60.0927C1.77799 60.031 0.572322 58.7426 0.634522 57.25C0.696956 55.7577 2.00581 54.5679 3.59286 54.6297Z" stroke="#7F80FE"/>
<path d="M138.189 88.8263L135.741 90.0034L135.708 92.6447L133.793 90.7595L131.182 91.5448L132.446 89.2026L130.867 87.0467L133.563 87.4843L135.197 85.3666L135.599 87.9793L138.189 88.8263Z" fill="#7F80FE"/>
<rect x="29.6347" y="4.24695" width="107.49" height="65.6429" rx="5.94888" transform="rotate(13.3487 29.6347 4.24695)" fill="url(#paint0_linear_1418_3665)" stroke="#222222" stroke-width="0.410268"/>
<path d="M51.9486 17.7112L51.7381 17.6613L52.1399 15.9679L52.3504 16.0178L51.9486 17.7112ZM52.6767 16.0952L52.8872 16.1452L52.5298 17.6515L53.3157 17.838L53.2713 18.0251L52.2749 17.7887L52.6767 16.0952ZM53.9059 16.3869L54.1164 16.4369L53.759 17.9432L54.5449 18.1296L54.5005 18.3168L53.5041 18.0803L53.9059 16.3869ZM54.9438 18.4219L54.7332 18.372L55.1351 16.6786L55.3456 16.7285L54.9438 18.4219ZM55.5784 16.7838L56.8554 17.0868L56.811 17.2739L56.2801 17.1479L55.9227 18.6542L55.7098 18.6037L56.0672 17.0974L55.534 16.9709L55.5784 16.7838ZM58.6714 18.0761C58.6605 17.9557 58.6214 17.8546 58.5544 17.7728C58.4875 17.6903 58.3948 17.6349 58.2763 17.6068C58.175 17.5827 58.0775 17.5872 57.9841 17.6202C57.8906 17.6532 57.808 17.7147 57.7364 17.8048C57.6648 17.8949 57.6122 18.0109 57.5785 18.1528C57.5448 18.2947 57.5397 18.4219 57.5633 18.5346C57.5877 18.6466 57.6351 18.7386 57.7053 18.8104C57.7764 18.8824 57.8648 18.9314 57.9707 18.9574C58.065 18.9797 58.1536 18.9794 58.2365 18.9562C58.3194 18.9331 58.3902 18.8897 58.449 18.8263C58.5078 18.762 58.5494 18.6804 58.5737 18.5816L58.1316 18.4767L58.1755 18.2919L58.8234 18.4457L58.7801 18.6281C58.7473 18.7661 58.689 18.8803 58.6049 18.9707C58.5218 19.0606 58.4209 19.1214 58.3022 19.1534C58.1842 19.1855 58.0581 19.1857 57.924 19.1538C57.7736 19.1181 57.6493 19.0516 57.5514 18.9542C57.4544 18.8563 57.3902 18.7344 57.359 18.5886C57.3278 18.4421 57.3332 18.2807 57.375 18.1045C57.4166 17.929 57.4842 17.7832 57.5776 17.6671C57.6713 17.5501 57.7826 17.4695 57.9117 17.4252C58.0408 17.3808 58.1779 17.3759 58.3229 17.4103C58.4407 17.4382 58.5431 17.4873 58.6302 17.5573C58.7175 17.6267 58.7837 17.7107 58.8286 17.8095C58.8735 17.9083 58.8936 18.0143 58.889 18.1277L58.6714 18.0761ZM59.2916 17.6649L59.5021 17.7148L59.1447 19.2211L59.9306 19.4076L59.8862 19.5947L58.8898 19.3583L59.2916 17.6649ZM61.6835 19.1268C61.6419 19.3022 61.5734 19.4482 61.4782 19.5648C61.3832 19.6807 61.2704 19.7605 61.1397 19.8045C61.0098 19.8486 60.8728 19.8535 60.7285 19.8193C60.5835 19.7849 60.4625 19.7187 60.3655 19.6208C60.2693 19.523 60.2048 19.401 60.1719 19.2549C60.14 19.1081 60.1449 18.947 60.1865 18.7716C60.2282 18.5962 60.2961 18.4505 60.3903 18.3345C60.4855 18.2179 60.5981 18.1375 60.728 18.0934C60.8586 18.0495 60.9965 18.0447 61.1415 18.0791C61.2857 18.1133 61.4059 18.1793 61.5022 18.2771C61.5991 18.3751 61.664 18.4975 61.6966 18.6445C61.7295 18.7906 61.7251 18.9514 61.6835 19.1268ZM60.39 18.8199C60.3565 18.961 60.3516 19.0879 60.3751 19.2005C60.3986 19.3132 60.4451 19.4053 60.5145 19.477C60.5848 19.5488 60.6717 19.5975 60.7752 19.6228C60.879 19.6467 60.9781 19.6422 61.0724 19.6094C61.1674 19.5767 61.2507 19.5154 61.3223 19.4253C61.394 19.3352 61.4465 19.2197 61.48 19.0785C61.5137 18.9366 61.5187 18.8094 61.4952 18.6967C61.4717 18.5841 61.4248 18.4918 61.3546 18.42C61.2851 18.3483 61.1985 18.3002 61.0949 18.2756C60.9912 18.251 60.8918 18.255 60.7968 18.2876C60.7025 18.3204 60.6196 18.3819 60.548 18.4719C60.4763 18.562 60.4237 18.678 60.39 18.8199ZM62.1452 18.342L62.7393 18.483C62.8539 18.5102 62.9455 18.5529 63.014 18.6112C63.0835 18.6688 63.1293 18.7361 63.1514 18.813C63.1743 18.8901 63.1753 18.971 63.1544 19.0558C63.1313 19.1566 63.0876 19.2294 63.0235 19.2743C62.9595 19.3184 62.883 19.3423 62.794 19.3459L62.7901 19.3622C62.8447 19.3785 62.8941 19.41 62.9382 19.4567C62.9831 19.5035 63.0152 19.5626 63.0345 19.6339C63.054 19.7044 63.0537 19.7822 63.0335 19.8672C63.012 19.9543 62.9729 20.027 62.9163 20.0852C62.8606 20.1428 62.7857 20.181 62.6914 20.1998C62.5982 20.2181 62.4872 20.2119 62.3586 20.1814L61.7434 20.0354L62.1452 18.342ZM62.4006 19.9937C62.5261 20.0235 62.6247 20.0213 62.6962 19.9873C62.7677 19.9532 62.8125 19.8963 62.8306 19.8165C62.845 19.759 62.8432 19.7026 62.825 19.6472C62.8069 19.5919 62.7739 19.5433 62.7262 19.5015C62.6792 19.4599 62.6207 19.4307 62.5505 19.4141L62.1365 19.3159L61.9983 19.8983L62.4006 19.9937ZM62.5564 19.2228C62.6172 19.2372 62.6753 19.2386 62.7308 19.2271C62.7864 19.2148 62.8338 19.1902 62.873 19.1534C62.9124 19.1158 62.939 19.0681 62.9527 19.0104C62.9647 18.9598 62.9637 18.9118 62.9498 18.8665C62.9358 18.8211 62.9073 18.7814 62.8644 18.7474C62.8224 18.7127 62.7659 18.6869 62.6949 18.6701L62.3113 18.5791L62.1798 19.1334L62.5564 19.2228ZM63.0334 20.3415L64.055 18.7952L64.2773 18.8479L64.4953 20.6884L64.273 20.6357L64.2167 20.1183L63.5361 19.9568L63.2533 20.3937L63.0334 20.3415ZM64.1962 19.9182L64.1071 19.0966L64.093 19.0933L63.6442 19.7873L64.1962 19.9182ZM65.0784 19.038L65.2889 19.088L64.9315 20.5943L65.7174 20.7807L65.673 20.9679L64.6766 20.7314L65.0784 19.038ZM68.0913 20.6473C68.0497 20.8227 67.9813 20.9688 67.8861 21.0853C67.7911 21.2012 67.6782 21.281 67.5476 21.325C67.4177 21.3691 67.2806 21.374 67.1364 21.3398C66.9914 21.3054 66.8704 21.2392 66.7734 21.1413C66.6772 21.0435 66.6126 20.9215 66.5798 20.7754C66.5479 20.6286 66.5528 20.4675 66.5944 20.2921C66.636 20.1167 66.7039 19.971 66.7982 19.855C66.8934 19.7384 67.0059 19.658 67.1358 19.6139C67.2665 19.57 67.4043 19.5652 67.5493 19.5996C67.6935 19.6339 67.8138 19.6999 67.91 19.7976C68.007 19.8956 68.0718 20.018 68.1045 20.165C68.1373 20.3111 68.1329 20.4719 68.0913 20.6473ZM66.7979 20.3404C66.7644 20.4815 66.7594 20.6084 66.7829 20.721C66.8064 20.8337 66.8529 20.9258 66.9224 20.9975C66.9926 21.0693 67.0795 21.118 67.183 21.1433C67.2869 21.1672 67.386 21.1627 67.4802 21.1299C67.5752 21.0972 67.6586 21.0359 67.7302 20.9458C67.8018 20.8557 67.8543 20.7402 67.8878 20.599C67.9215 20.4571 67.9266 20.3299 67.9031 20.2172C67.8796 20.1046 67.8327 20.0123 67.7624 19.9405C67.693 19.8688 67.6064 19.8207 67.5027 19.7961C67.399 19.7715 67.2996 19.7755 67.2046 19.8081C67.1103 19.8409 67.0274 19.9024 66.9558 19.9925C66.8842 20.0825 66.8315 20.1985 66.7979 20.3404ZM68.5531 19.8625L69.5729 20.1045L69.5285 20.2916L68.7192 20.0996L68.5849 20.6656L69.317 20.8393L69.2731 21.0241L68.541 20.8504L68.3617 21.6059L68.1512 21.5559L68.5531 19.8625ZM69.8384 20.1675L70.8582 20.4095L70.8138 20.5966L70.0045 20.4046L69.8702 20.9706L70.6023 21.1443L70.5584 21.3291L69.8263 21.1554L69.6471 21.9109L69.4366 21.8609L69.8384 20.1675ZM70.9324 22.2159L70.7219 22.1659L71.1237 20.4725L71.3342 20.5224L70.9324 22.2159ZM72.6894 21.4073C72.6918 21.328 72.6763 21.256 72.6431 21.1913C72.6101 21.1258 72.5637 21.0711 72.5041 21.0274C72.4453 20.9837 72.3781 20.953 72.3024 20.935C72.1987 20.9104 72.0994 20.9144 72.0043 20.9471C71.9101 20.9799 71.8271 21.0413 71.7555 21.1314C71.6839 21.2214 71.6313 21.3374 71.5976 21.4793C71.5641 21.6204 71.5591 21.7473 71.5826 21.86C71.6062 21.9726 71.6526 22.0648 71.7221 22.1364C71.7924 22.2083 71.8792 22.2569 71.9827 22.2823C72.0586 22.2994 72.1324 22.3021 72.2044 22.2904C72.2766 22.2779 72.342 22.2502 72.4008 22.2073C72.4596 22.1644 72.506 22.1075 72.5401 22.0365L72.7506 22.0865C72.7035 22.1947 72.638 22.2833 72.5541 22.3524C72.4704 22.4206 72.3749 22.4655 72.2677 22.487C72.1613 22.5087 72.0507 22.5059 71.9361 22.4787C71.7911 22.4443 71.6701 22.3781 71.5731 22.2802C71.4769 22.1824 71.4124 22.0604 71.3795 21.9143C71.3476 21.7675 71.3525 21.6065 71.3941 21.431C71.4357 21.2556 71.5037 21.1099 71.5979 20.9939C71.6931 20.8773 71.8056 20.797 71.9355 20.7528C72.0662 20.7089 72.204 20.7041 72.3491 20.7385C72.4637 20.7657 72.5636 20.8129 72.649 20.8801C72.7345 20.9466 72.7993 21.0294 72.8432 21.1288C72.8881 21.2276 72.9071 21.3371 72.8999 21.4573L72.6894 21.4073ZM73.082 22.7259L72.8715 22.676L73.2733 20.9826L73.4838 21.0325L73.082 22.7259ZM73.2633 22.769L74.2849 21.2226L74.5071 21.2753L74.7251 23.1158L74.5029 23.0631L74.4466 22.5457L73.7659 22.3842L73.4832 22.8211L73.2633 22.769ZM74.4261 22.3457L74.337 21.524L74.3229 21.5207L73.8741 22.2147L74.4261 22.3457ZM75.3083 21.4654L75.5188 21.5154L75.1614 23.0217L75.9473 23.2082L75.9029 23.3953L74.9065 23.1589L75.3083 21.4654ZM77.0907 21.8884L78.1105 22.1304L78.0661 22.3175L77.2568 22.1255L77.1225 22.6915L77.8546 22.8652L77.8107 23.05L77.0786 22.8763L76.8994 23.6317L76.6888 23.5818L77.0907 21.8884ZM77.6163 23.8019L78.6379 22.2555L78.8601 22.3083L79.0781 24.1488L78.8559 24.096L78.7996 23.5786L78.119 23.4171L77.8362 23.854L77.6163 23.8019ZM78.7791 23.3786L78.69 22.5569L78.6759 22.5536L78.2271 23.2476L78.7791 23.3786ZM80.6044 24.5109L80.4032 24.4632L79.7994 22.9264L79.783 22.9226L79.47 24.2417L79.2595 24.1918L79.6613 22.4984L79.8648 22.5467L80.4681 24.0857L80.4844 24.0896L80.798 22.7681L81.0062 22.8175L80.6044 24.5109ZM82.3614 23.7024C82.3638 23.6231 82.3483 23.551 82.3151 23.4863C82.2821 23.4208 82.2357 23.3662 82.1761 23.3224C82.1173 23.2788 82.0501 23.248 81.9744 23.2301C81.8707 23.2055 81.7714 23.2095 81.6763 23.2421C81.5821 23.2749 81.4991 23.3364 81.4275 23.4264C81.3559 23.5165 81.3033 23.6325 81.2696 23.7744C81.2361 23.9155 81.2311 24.0424 81.2546 24.155C81.2782 24.2677 81.3246 24.3598 81.3941 24.4315C81.4644 24.5033 81.5512 24.5519 81.6548 24.5773C81.7306 24.5945 81.8045 24.5972 81.8764 24.5854C81.9486 24.5729 82.014 24.5452 82.0728 24.5023C82.1316 24.4595 82.178 24.4025 82.2121 24.3316L82.4226 24.3815C82.3755 24.4898 82.31 24.5784 82.2261 24.6474C82.1424 24.7157 82.0469 24.7606 81.9397 24.7821C81.8333 24.8037 81.7227 24.801 81.6081 24.7738C81.4631 24.7394 81.3421 24.6732 81.2451 24.5752C81.1489 24.4775 81.0844 24.3555 81.0515 24.2094C81.0196 24.0626 81.0245 23.9015 81.0661 23.7261C81.1078 23.5507 81.1757 23.405 81.2699 23.289C81.3651 23.1724 81.4777 23.092 81.6075 23.0479C81.7382 23.004 81.876 22.9992 82.0211 23.0336C82.1357 23.0608 82.2356 23.108 82.321 23.1752C82.4065 23.2416 82.4713 23.3245 82.5152 23.4239C82.5602 23.5227 82.5791 23.6321 82.5719 23.7523L82.3614 23.7024ZM82.9453 23.2776L83.1558 23.3276L82.7984 24.8339L83.5843 25.0203L83.5399 25.2075L82.5435 24.971L82.9453 23.2776ZM85.4936 23.8823L85.2278 25.0027C85.2004 25.1181 85.1485 25.2153 85.0721 25.2943C84.9959 25.3726 84.9017 25.426 84.7895 25.4546C84.6775 25.4824 84.556 25.4807 84.425 25.4496C84.294 25.4185 84.1847 25.3654 84.0972 25.2903C84.0098 25.2144 83.9496 25.1243 83.9167 25.0202C83.8839 24.9152 83.8812 24.805 83.9086 24.6897L84.1745 23.5693L84.385 23.6192L84.123 24.7232C84.1036 24.8051 84.1042 24.8822 84.1249 24.9547C84.1456 25.0271 84.1855 25.0897 84.2447 25.1425C84.3048 25.1946 84.3804 25.2315 84.4716 25.2531C84.5629 25.2748 84.6466 25.2757 84.723 25.256C84.7995 25.2354 84.8633 25.1974 84.9143 25.142C84.9653 25.0866 85.001 25.018 85.0212 24.9364L85.2831 23.8324L85.4936 23.8823ZM85.82 23.9597L86.4141 24.1007C86.5287 24.1279 86.6203 24.1706 86.6888 24.2289C86.7583 24.2866 86.8041 24.3539 86.8262 24.4308C86.8491 24.5078 86.85 24.5888 86.8291 24.6736C86.806 24.7743 86.7624 24.8472 86.6982 24.892C86.6342 24.9362 86.5577 24.96 86.4687 24.9636L86.4649 24.98C86.5195 24.9962 86.5688 25.0277 86.6129 25.0744C86.6578 25.1213 86.6899 25.1804 86.7092 25.2517C86.7287 25.3222 86.7284 25.3999 86.7082 25.4849C86.6867 25.5721 86.6477 25.6447 86.591 25.7029C86.5353 25.7605 86.4604 25.7988 86.3662 25.8176C86.2729 25.8358 86.1619 25.8297 86.0333 25.7991L85.4181 25.6532L85.82 23.9597ZM86.0754 25.6115C86.2009 25.6412 86.2994 25.6391 86.3709 25.605C86.4424 25.5709 86.4872 25.514 86.5053 25.4343C86.5198 25.3768 86.5179 25.3203 86.4998 25.265C86.4816 25.2096 86.4487 25.161 86.4009 25.1192C86.354 25.0776 86.2954 25.0485 86.2253 25.0318L85.8113 24.9336L85.6731 25.516L86.0754 25.6115ZM86.2311 24.8405C86.2919 24.8549 86.3501 24.8564 86.4055 24.8448C86.4611 24.8325 86.5086 24.8079 86.5478 24.7711C86.5872 24.7335 86.6137 24.6859 86.6274 24.6282C86.6394 24.5775 86.6385 24.5295 86.6245 24.4842C86.6105 24.4389 86.5821 24.3992 86.5391 24.3651C86.4971 24.3304 86.4406 24.3047 86.3697 24.2878L85.9861 24.1968L85.8545 24.7512L86.2311 24.8405ZM88.8382 25.2343C88.8272 25.1139 88.7882 25.0129 88.7212 24.9311C88.6543 24.8485 88.5616 24.7931 88.4431 24.765C88.3417 24.741 88.2443 24.7454 88.1508 24.7784C88.0574 24.8114 87.9748 24.873 87.9032 24.963C87.8316 25.0531 87.7789 25.1691 87.7453 25.311C87.7116 25.4529 87.7065 25.5801 87.73 25.6928C87.7545 25.8048 87.8019 25.8968 87.8721 25.9686C87.9431 26.0407 88.0316 26.0896 88.1374 26.1156C88.2318 26.138 88.3204 26.1376 88.4033 26.1144C88.4862 26.0913 88.557 26.048 88.6157 25.9845C88.6746 25.9202 88.7162 25.8387 88.7405 25.7398L88.2984 25.6349L88.3423 25.4502L88.9902 25.6039L88.9469 25.7863C88.9141 25.9243 88.8557 26.0386 88.7717 26.129C88.6886 26.2188 88.5877 26.2797 88.4689 26.3116C88.351 26.3437 88.2249 26.3439 88.0908 26.3121C87.9403 26.2764 87.8161 26.2098 87.7182 26.1125C87.6212 26.0145 87.557 25.8926 87.5257 25.7468C87.4946 25.6003 87.5 25.4389 87.5418 25.2627C87.5834 25.0873 87.651 24.9415 87.7444 24.8253C87.838 24.7083 87.9494 24.6277 88.0785 24.5834C88.2076 24.5391 88.3447 24.5341 88.4897 24.5685C88.6074 24.5965 88.7099 24.6455 88.797 24.7156C88.8843 24.7849 88.9504 24.8689 88.9954 24.9677C89.0403 25.0665 89.0604 25.1726 89.0557 25.2859L88.8382 25.2343ZM89.4584 24.8231L89.6689 24.8731L89.3115 26.3793L90.0974 26.5658L90.053 26.7529L89.0566 26.5165L89.4584 24.8231ZM90.6876 25.1148L90.8981 25.1647L90.5406 26.671L91.3265 26.8575L91.2821 27.0446L90.2857 26.8082L90.6876 25.1148ZM91.7254 27.1498L91.5149 27.0999L91.9167 25.4064L92.1272 25.4564L91.7254 27.1498ZM92.36 25.5116L93.6371 25.8147L93.5927 26.0018L93.0617 25.8758L92.7043 27.3821L92.4915 27.3316L92.8489 25.8253L92.3156 25.6987L92.36 25.5116ZM94.6757 26.0611L94.9156 27.5906L94.9367 27.5955L95.8381 26.3369L96.0908 26.3969L95.6889 28.0903L95.4901 28.0431L95.7937 26.7637L95.7773 26.7598L94.9475 27.9144L94.7604 27.87L94.5377 26.4657L94.5236 26.4623L94.2201 27.7418L94.0212 27.6946L94.4231 26.0012L94.6757 26.0611ZM96.4171 26.4743L97.4439 26.718L97.3995 26.9051L96.5832 26.7114L96.4489 27.2774L97.2114 27.4584L97.1675 27.6431L96.405 27.4622L96.2702 28.0306L97.0982 28.227L97.0538 28.4142L96.0153 28.1677L96.4171 26.4743ZM97.9807 26.8454L98.2207 28.3748L98.2417 28.3798L99.1432 27.1212L99.3958 27.1811L98.994 28.8746L98.7952 28.8274L99.0988 27.548L99.0824 27.5441L98.2525 28.6986L98.0654 28.6542L97.8427 27.2499L97.8287 27.2466L97.5251 28.526L97.3263 28.4788L97.7281 26.7854L97.9807 26.8454ZM99.7221 27.2586L100.316 27.3995C100.431 27.4267 100.522 27.4695 100.591 27.5277C100.66 27.5854 100.706 27.6527 100.728 27.7296C100.751 27.8067 100.752 27.8876 100.731 27.9724C100.708 28.0732 100.665 28.146 100.6 28.1909C100.536 28.235 100.46 28.2588 100.371 28.2624L100.367 28.2788C100.422 28.2951 100.471 28.3265 100.515 28.3732C100.56 28.4201 100.592 28.4792 100.611 28.5505C100.631 28.621 100.631 28.6988 100.61 28.7837C100.589 28.8709 100.55 28.9435 100.493 29.0018C100.438 29.0594 100.363 29.0976 100.268 29.1164C100.175 29.1346 100.064 29.1285 99.9355 29.098L99.3203 28.952L99.7221 27.2586ZM99.9775 28.9103C100.103 28.9401 100.202 28.9379 100.273 28.9038C100.345 28.8697 100.389 28.8128 100.407 28.7331C100.422 28.6756 100.42 28.6192 100.402 28.5638C100.384 28.5084 100.351 28.4598 100.303 28.418C100.256 28.3764 100.198 28.3473 100.127 28.3307L99.7134 28.2324L99.5752 28.8148L99.9775 28.9103ZM100.133 28.1393C100.194 28.1538 100.252 28.1552 100.308 28.1437C100.363 28.1313 100.411 28.1068 100.45 28.0699C100.489 28.0323 100.516 27.9847 100.53 27.927C100.542 27.8763 100.541 27.8283 100.527 27.783C100.513 27.7377 100.484 27.698 100.441 27.6639C100.399 27.6293 100.343 27.6035 100.272 27.5867L99.8882 27.4956L99.7567 28.05L100.133 28.1393ZM101.157 27.5991L102.184 27.8427L102.14 28.0298L101.323 27.8362L101.189 28.4022L101.951 28.5831L101.908 28.7679L101.145 28.587L101.01 29.1553L101.838 29.3518L101.794 29.5389L100.755 29.2925L101.157 27.5991ZM102.468 27.9102L103.044 28.0467C103.172 28.0772 103.274 28.1249 103.349 28.1897C103.426 28.2539 103.475 28.3303 103.499 28.4191C103.522 28.507 103.522 28.6025 103.498 28.7054C103.47 28.8208 103.42 28.9135 103.348 28.9836C103.276 29.053 103.183 29.0936 103.069 29.1053L103.285 29.8927L103.039 29.8345L102.841 29.092C102.832 29.0907 102.819 29.0879 102.8 29.0834L102.433 28.9963L102.277 29.6535L102.066 29.6036L102.468 27.9102ZM102.836 28.8894C102.967 28.9205 103.069 28.9154 103.141 28.8741C103.214 28.833 103.264 28.7603 103.289 28.656C103.341 28.4326 103.241 28.2912 102.99 28.2316L102.634 28.1472L102.478 28.8045L102.836 28.8894ZM104.7 28.8895C104.708 28.8336 104.699 28.7822 104.675 28.7353C104.651 28.6876 104.614 28.6471 104.564 28.6139C104.515 28.5799 104.456 28.5548 104.388 28.5387C104.315 28.5213 104.247 28.5181 104.186 28.5289C104.124 28.539 104.072 28.5614 104.031 28.5961C103.99 28.6308 103.963 28.675 103.95 28.7288C103.932 28.8078 103.95 28.8759 104.004 28.9331C104.058 28.9896 104.128 29.0394 104.212 29.0825L104.37 29.1693C104.493 29.2339 104.593 29.3121 104.671 29.4038C104.749 29.4956 104.771 29.6113 104.738 29.7508C104.716 29.8436 104.672 29.9217 104.606 29.9851C104.54 30.0477 104.456 30.0894 104.353 30.1103C104.25 30.1311 104.134 30.1264 104.006 30.0961C103.886 30.0676 103.786 30.0232 103.706 29.9629C103.626 29.9021 103.569 29.8306 103.535 29.7484C103.502 29.6654 103.492 29.5763 103.507 29.4811L103.723 29.5321C103.714 29.5942 103.723 29.6507 103.749 29.7015C103.776 29.7523 103.815 29.795 103.868 29.8298C103.922 29.8639 103.983 29.8888 104.052 29.9043C104.13 29.9228 104.203 29.9268 104.27 29.9165C104.338 29.9064 104.396 29.8824 104.442 29.8448C104.489 29.8065 104.519 29.7574 104.533 29.6973C104.546 29.6451 104.541 29.5979 104.52 29.5558C104.499 29.5139 104.468 29.4763 104.426 29.4432C104.383 29.4101 104.33 29.3756 104.265 29.3396L104.07 29.2341C103.941 29.1606 103.847 29.0791 103.79 28.9896C103.733 28.9003 103.718 28.8004 103.745 28.6899C103.767 28.5963 103.812 28.5197 103.879 28.46C103.947 28.3995 104.03 28.3603 104.128 28.3424C104.227 28.3238 104.331 28.3274 104.44 28.3533C104.547 28.3788 104.639 28.4212 104.716 28.4806C104.793 28.5401 104.849 28.6101 104.882 28.6905C104.916 28.7702 104.924 28.8528 104.906 28.9383L104.7 28.8895ZM105.284 28.5784L105.495 28.6284L105.316 29.3815L106.212 29.5941L106.391 28.841L106.604 28.8915L106.202 30.5849L105.989 30.5344L106.168 29.7789L105.272 29.5663L105.093 30.3218L104.883 30.2718L105.284 28.5784ZM106.736 30.7117L106.526 30.6617L106.928 28.9683L107.138 29.0183L106.736 30.7117ZM107.464 29.0957L108.04 29.2323C108.168 29.2626 108.269 29.3114 108.345 29.3787C108.42 29.4461 108.469 29.5252 108.492 29.6163C108.515 29.7066 108.514 29.8036 108.49 29.9073C108.465 30.0102 108.422 30.0976 108.361 30.1695C108.3 30.2406 108.22 30.2896 108.122 30.3167C108.025 30.3431 107.913 30.3412 107.786 30.3111L107.419 30.2239L107.273 30.8391L107.063 30.7891L107.464 29.0957ZM107.821 30.1217C107.95 30.1523 108.052 30.1428 108.128 30.0933C108.204 30.0438 108.255 29.9653 108.282 29.8579C108.306 29.7501 108.296 29.6574 108.249 29.5796C108.203 29.502 108.115 29.4479 107.986 29.4172L107.631 29.3328L107.463 30.0368L107.821 30.1217Z" fill="#656565"/>
<rect x="56.0156" y="28.9971" width="5.0102" height="4.9527" transform="rotate(13.3487 56.0156 28.9971)" fill="white"/>
<rect x="80.2373" y="34.7461" width="5.0102" height="4.9527" transform="rotate(13.3487 80.2373 34.7461)" fill="white"/>
<rect x="53.8721" y="38.0322" width="5.0102" height="4.9527" transform="rotate(13.3487 53.8721 38.0322)" fill="white"/>
<rect x="78.0918" y="43.7803" width="5.0102" height="4.9527" transform="rotate(13.3487 78.0918 43.7803)" fill="white"/>
<rect x="64.0889" y="30.9141" width="5.0102" height="14.239" transform="rotate(13.3487 64.0889 30.9141)" fill="white"/>
<rect x="72.1641" y="32.8291" width="5.0102" height="14.239" transform="rotate(13.3487 72.1641 32.8291)" fill="white"/>
<rect x="89.9883" y="37.0576" width="5.0102" height="14.239" transform="rotate(13.3487 89.9883 37.0576)" fill="white"/>
<rect x="97.6562" y="43.6523" width="4.9527" height="14.4043" transform="rotate(103.349 97.6562 43.6523)" fill="white"/>
<path d="M49.0971 62.0813L49.5769 65.1402L49.619 65.1502L51.422 62.633L51.9272 62.7529L51.1236 66.1397L50.7259 66.0453L51.3331 63.4865L51.3004 63.4787L49.6407 65.7878L49.2664 65.699L48.8211 62.8904L48.793 62.8838L48.1858 65.4426L47.7882 65.3482L48.5919 61.9614L49.0971 62.0813ZM52.7511 66.5802C52.5219 66.5258 52.3319 66.4239 52.1812 66.2745C52.0325 66.1239 51.9333 65.9382 51.8836 65.7172C51.8339 65.4962 51.84 65.2555 51.9017 64.9951C51.9639 64.7332 52.0668 64.5146 52.2105 64.3395C52.3542 64.1644 52.5263 64.043 52.7268 63.9753C52.9289 63.908 53.1446 63.9015 53.3738 63.9559C53.6015 64.0099 53.7897 64.1122 53.9384 64.2628C54.0871 64.4134 54.1856 64.599 54.2337 64.8196C54.2818 65.0402 54.2748 65.2815 54.2126 65.5435C54.1509 65.8039 54.0489 66.0218 53.9068 66.1973C53.7647 66.3727 53.5934 66.4943 53.3928 66.562C53.1926 66.6282 52.9787 66.6343 52.7511 66.5802ZM52.3041 65.0906C52.2642 65.2656 52.2543 65.4321 52.2745 65.5901C52.2962 65.7484 52.3538 65.8839 52.4473 65.9967C52.5408 66.1095 52.6701 66.1855 52.8354 66.2247C52.9992 66.2636 53.1473 66.2534 53.28 66.1943C53.4126 66.1352 53.5234 66.0396 53.6124 65.9075C53.7029 65.7758 53.7689 65.6227 53.8103 65.448C53.8518 65.2734 53.8616 65.1069 53.8399 64.9485C53.8198 64.7906 53.7639 64.6546 53.6723 64.5407C53.5808 64.4267 53.4532 64.3503 53.2894 64.3114C53.1241 64.2722 52.9742 64.2828 52.8397 64.3431C52.7051 64.4034 52.5926 64.4994 52.502 64.6311C52.413 64.7631 52.3471 64.9163 52.3041 65.0906ZM54.7492 67L54.3469 66.9045L54.9496 64.3644L55.3379 64.4566L55.2435 64.8542L55.2763 64.8619C55.3708 64.7411 55.4886 64.6578 55.6295 64.6122C55.7724 64.5654 55.9366 64.564 56.1222 64.6081C56.2968 64.6495 56.4396 64.7213 56.5504 64.8233C56.6616 64.9238 56.7353 65.0542 56.7714 65.2143C56.8075 65.3744 56.8006 65.5597 56.7507 65.7702L56.3677 67.3841L55.9654 67.2886L56.3417 65.7028C56.3883 65.5063 56.3741 65.3407 56.299 65.2059C56.2239 65.0712 56.096 64.9823 55.9151 64.9394C55.7903 64.9098 55.6731 64.9108 55.5635 64.9425C55.4543 64.9725 55.3599 65.0333 55.2806 65.1249C55.2016 65.2148 55.1451 65.3315 55.111 65.475L54.7492 67ZM58.549 65.5743L58.0157 65.4477L57.666 66.9213C57.6293 67.0691 57.6343 67.1765 57.681 67.2436C57.7296 67.3094 57.8053 67.3546 57.9082 67.379C57.9691 67.3934 58.0281 67.405 58.0853 67.4136L58.149 67.4263L58.0602 67.8005C57.9731 67.793 57.878 67.777 57.7751 67.7526C57.6566 67.7245 57.5501 67.6737 57.4555 67.6002C57.3613 67.5251 57.2925 67.4297 57.2492 67.314C57.2058 67.1983 57.201 67.0695 57.2346 66.9276L57.6087 65.3512L57.2251 65.2601L57.305 64.9233L57.6886 65.0144L57.8329 64.4062L58.2399 64.5028L58.0956 65.1109L58.6289 65.2375L58.549 65.5743ZM58.908 67.9869L58.5057 67.8914L59.3094 64.5046L59.7117 64.6L59.4164 65.8444L59.4492 65.8521C59.6482 65.5963 59.9318 65.512 60.2998 65.5994C60.568 65.663 60.76 65.7942 60.8759 65.993C60.9922 66.1903 61.0127 66.4472 60.9376 66.7637L60.5547 68.3776L60.1524 68.2821L60.5287 66.6963C60.576 66.4967 60.5612 66.3301 60.4842 66.1966C60.4072 66.063 60.2767 65.9744 60.0927 65.9307C59.9648 65.9004 59.8445 65.9006 59.7317 65.9315C59.6209 65.9612 59.5243 66.0215 59.4418 66.1123C59.3612 66.2019 59.3039 66.3184 59.2699 66.4618L58.908 67.9869ZM61.5067 68.6035L61.1044 68.508L61.9081 65.1212L62.3104 65.2167L61.5067 68.6035ZM62.0826 69.7482C61.968 69.7177 61.8939 69.6968 61.8603 69.6855L61.9458 69.3253C61.9641 69.3313 62.0289 69.35 62.14 69.3813C62.209 69.396 62.267 69.4016 62.314 69.3979C62.3622 69.3961 62.4155 69.3726 62.4741 69.3272C62.5322 69.2833 62.5963 69.2079 62.6661 69.101L62.7865 68.9269L62.4534 66.145L62.8931 66.2493L63.107 68.4298L63.1351 68.4365L64.3058 66.5845L64.7456 66.6889L62.9803 69.3386C62.8581 69.5204 62.7233 69.6441 62.576 69.7096C62.4283 69.7767 62.2639 69.7895 62.0826 69.7482ZM66.9582 66.3195L67.438 69.3784L67.4801 69.3884L69.2831 66.8712L69.7883 66.9911L68.9847 70.3779L68.587 70.2836L69.1942 67.7247L69.1615 67.717L67.5018 70.026L67.1275 69.9372L66.6822 67.1287L66.6541 67.122L66.0469 69.6808L65.6493 69.5865L66.453 66.1997L66.9582 66.3195ZM70.6402 70.8251C70.3985 70.7678 70.2008 70.664 70.047 70.5139C69.8932 70.3637 69.7913 70.179 69.7412 69.9595C69.6927 69.7405 69.6992 69.5016 69.7606 69.2427C69.822 68.9839 69.924 68.7659 70.0665 68.5889C70.2109 68.4107 70.3828 68.2868 70.5821 68.2171C70.7834 68.1463 70.9979 68.1379 71.2255 68.1919C71.4173 68.2374 71.5857 68.3227 71.7306 68.4477C71.8759 68.5711 71.9775 68.7401 72.0353 68.9548C72.095 69.1683 72.0897 69.4231 72.0194 69.7194L71.9794 69.8878L70.1363 69.4504C70.1007 69.6281 70.1017 69.7873 70.1391 69.928C70.1781 70.069 70.2475 70.1859 70.3474 70.2788C70.4476 70.3701 70.5733 70.4337 70.7246 70.4696C70.8681 70.5036 70.9952 70.5058 71.106 70.4761C71.2188 70.4452 71.311 70.393 71.3828 70.3194L71.8132 70.4216C71.742 70.5414 71.6471 70.6391 71.5287 70.7148C71.4122 70.7892 71.2775 70.8363 71.1246 70.856C70.9732 70.8761 70.8118 70.8658 70.6402 70.8251ZM71.6534 69.4497C71.6867 69.3094 71.6879 69.1762 71.6568 69.0503C71.6273 68.9247 71.5679 68.8175 71.4786 68.7288C71.3909 68.6405 71.2784 68.58 71.1412 68.5474C70.9993 68.5138 70.865 68.5173 70.7384 68.5581C70.6133 68.5993 70.5053 68.6692 70.4144 68.7678C70.3254 68.8653 70.2605 68.9792 70.2197 69.1095L71.6534 69.4497ZM72.7405 68.586L73.1288 68.6781L73.0344 69.0758L73.0672 69.0835C73.1524 68.9604 73.2631 68.8755 73.3994 68.8288C73.536 68.7805 73.687 68.776 73.8523 68.8152C74.016 68.8541 74.1459 68.9244 74.242 69.0263C74.3384 69.1266 74.4006 69.2533 74.4285 69.4065L74.4565 69.4132C74.5538 69.2946 74.6771 69.2127 74.8262 69.1674C74.9768 69.1224 75.1418 69.1212 75.3212 69.1638C75.4755 69.2004 75.6028 69.2644 75.703 69.3557C75.8048 69.4474 75.8729 69.5665 75.9073 69.713C75.9417 69.8595 75.936 70.0295 75.8901 70.2228L75.4872 71.9209L75.0849 71.8254L75.4867 70.132C75.527 69.9554 75.5095 69.8138 75.4344 69.707C75.3596 69.5987 75.2466 69.5266 75.0953 69.4907C74.98 69.4633 74.8744 69.4638 74.7788 69.4921C74.6846 69.5209 74.6058 69.5721 74.5421 69.646C74.4785 69.7198 74.4329 69.8111 74.4055 69.9199L74.0136 71.5712L73.6067 71.4747L74.0185 69.7392C74.0407 69.6456 74.0392 69.558 74.0142 69.4762C73.991 69.3933 73.9458 69.3233 73.8787 69.2662C73.8135 69.2079 73.7325 69.1673 73.6358 69.1443C73.5345 69.1203 73.4337 69.1252 73.3334 69.1591C73.2335 69.1913 73.1457 69.2488 73.0702 69.3313C72.9961 69.4142 72.9449 69.5157 72.9164 69.6358L72.5401 71.2216L72.1378 71.1261L72.7405 68.586ZM76.892 68.6767L77.2944 68.7722L76.998 70.0212L77.0307 70.029C77.1076 69.955 77.1739 69.8974 77.2298 69.8563C77.2861 69.8137 77.369 69.7798 77.4787 69.7548C77.5888 69.7282 77.7187 69.7327 77.8684 69.7682C78.0805 69.8185 78.2556 69.9169 78.3938 70.0633C78.5324 70.2082 78.6241 70.3906 78.6691 70.6105C78.7142 70.8303 78.7054 71.072 78.6429 71.3355C78.58 71.6006 78.4788 71.822 78.3395 71.9998C78.2005 72.176 78.0364 72.2985 77.8471 72.3672C77.6582 72.4344 77.4593 72.4432 77.2503 72.3936C77.1022 72.3585 76.984 72.3049 76.8957 72.2329C76.8089 72.1612 76.7482 72.0908 76.7135 72.0217C76.6789 71.9525 76.6462 71.8714 76.6156 71.7785L76.5688 71.7674L76.4767 72.1557L76.0884 72.0636L76.892 68.6767ZM76.7833 70.8844C76.7378 71.0762 76.7259 71.2513 76.7476 71.4096C76.7693 71.5679 76.8243 71.7004 76.9127 71.807C77.003 71.9124 77.1238 71.9831 77.275 72.019C77.4309 72.056 77.5742 72.0455 77.7049 71.9876C77.8356 71.9297 77.9455 71.8347 78.0345 71.7026C78.125 71.5709 78.1929 71.4132 78.2381 71.2296C78.2795 71.0484 78.2897 70.8803 78.2688 70.7255C78.2479 70.5706 78.1917 70.4395 78.1002 70.3322C78.0103 70.2252 77.8858 70.1528 77.7268 70.1151C77.574 70.0788 77.4337 70.0867 77.3061 70.1388C77.18 70.1912 77.072 70.2817 76.9822 70.4103C76.8944 70.5377 76.828 70.6957 76.7833 70.8844ZM79.8256 73.0047C79.5839 72.9474 79.3862 72.8436 79.2324 72.6935C79.0786 72.5433 78.9767 72.3586 78.9266 72.1391C78.8781 71.9201 78.8846 71.6812 78.946 71.4223C79.0075 71.1635 79.1094 70.9455 79.2519 70.7685C79.3963 70.5903 79.5682 70.4664 79.7675 70.3967C79.9688 70.3259 80.1833 70.3175 80.4109 70.3715C80.6027 70.417 80.7711 70.5023 80.916 70.6273C81.0613 70.7507 81.1629 70.9197 81.2207 71.1344C81.2804 71.3478 81.2751 71.6027 81.2048 71.899L81.1648 72.0674L79.3217 71.63C79.2861 71.8077 79.2871 71.9669 79.3245 72.1075C79.3635 72.2486 79.4329 72.3655 79.5328 72.4584C79.633 72.5497 79.7587 72.6133 79.91 72.6492C80.0535 72.6832 80.1806 72.6854 80.2914 72.6557C80.4042 72.6248 80.4964 72.5726 80.5682 72.499L80.9986 72.6011C80.9274 72.7209 80.8325 72.8187 80.7141 72.8943C80.5976 72.9688 80.4629 73.0159 80.31 73.0356C80.1586 73.0557 79.9972 73.0454 79.8256 73.0047ZM80.8388 71.6293C80.8722 71.489 80.8733 71.3558 80.8422 71.2299C80.8127 71.1043 80.7533 70.9971 80.664 70.9084C80.5763 70.8201 80.4638 70.7596 80.3266 70.727C80.1847 70.6934 80.0504 70.6969 79.9238 70.7377C79.7987 70.7789 79.6907 70.8488 79.5998 70.9474C79.5108 71.0449 79.4459 71.1588 79.4051 71.2891L80.8388 71.6293ZM81.9259 70.7656L82.3142 70.8577L82.2221 71.246L82.2501 71.2527C82.3257 71.1355 82.4328 71.0522 82.5713 71.0027C82.7118 70.9521 82.8571 70.9437 83.0072 70.9777C83.029 70.9829 83.046 70.9877 83.0581 70.9922C83.0768 70.9967 83.1039 71.0039 83.1394 71.014C83.1749 71.0241 83.2002 71.0317 83.2155 71.037L83.1189 71.444C83.0422 71.406 82.9634 71.3774 82.8823 71.3582C82.7622 71.3297 82.6477 71.3297 82.5389 71.3582C82.43 71.3867 82.3367 71.4396 82.2591 71.5167C82.1831 71.5942 82.1318 71.689 82.1051 71.8013L81.7255 73.4012L81.3232 73.3057L81.9259 70.7656ZM84.761 72.1351C84.7573 72.0189 84.7198 71.9202 84.6485 71.839C84.5791 71.7567 84.4728 71.6977 84.3297 71.6621C84.2268 71.6377 84.1307 71.633 84.0415 71.6481C83.9523 71.6631 83.8773 71.6948 83.8164 71.7429C83.756 71.7895 83.7174 71.8479 83.7007 71.9181C83.6823 72.0026 83.7012 72.0829 83.7573 72.1588C83.8138 72.2331 83.9118 72.3058 84.0514 72.3768L84.4081 72.5603C84.6217 72.6669 84.7709 72.7913 84.8558 72.9333C84.941 73.0738 84.9635 73.2323 84.9233 73.4089C84.8866 73.5567 84.8155 73.679 84.7102 73.7759C84.6048 73.8728 84.4695 73.9362 84.3043 73.9662C84.1395 73.9946 83.9533 73.9842 83.7459 73.935C83.4618 73.8692 83.2509 73.7549 83.1133 73.5921C82.9756 73.4293 82.9173 73.2277 82.9381 72.9872L83.3591 73.0871C83.3482 73.3415 83.4986 73.5057 83.8105 73.5797C83.996 73.6237 84.15 73.624 84.2723 73.5805C84.3965 73.5359 84.4729 73.4536 84.5014 73.3335C84.5228 73.243 84.5071 73.1602 84.4541 73.0851C84.4011 73.0099 84.3069 72.9382 84.1716 72.8698L83.8091 72.6899C83.6015 72.5863 83.4531 72.4621 83.3639 72.3174C83.2762 72.1731 83.2526 72.0159 83.2929 71.846C83.3269 71.7025 83.3964 71.5831 83.5014 71.4878C83.608 71.3928 83.7398 71.3302 83.8968 71.3C84.0554 71.2701 84.2268 71.277 84.4108 71.3206C84.5823 71.3613 84.7267 71.4261 84.844 71.5148C84.9613 71.6036 85.0457 71.7093 85.0973 71.8319C85.1505 71.9549 85.1694 72.087 85.154 72.2283L84.761 72.1351ZM85.585 74.317L85.1827 74.2215L85.9863 70.8347L86.3886 70.9302L86.0934 72.1745L86.1261 72.1823C86.3252 71.9264 86.6087 71.8422 86.9767 71.9295C87.2449 71.9931 87.4369 72.1244 87.5528 72.3232C87.6691 72.5204 87.6897 72.7773 87.6146 73.0938L87.2316 74.7077L86.8293 74.6122L87.2056 73.0264C87.253 72.8268 87.2381 72.6603 87.1611 72.5267C87.0841 72.3931 86.9536 72.3045 86.7696 72.2608C86.6417 72.2305 86.5214 72.2308 86.4087 72.2617C86.2979 72.2914 86.2012 72.3516 86.1187 72.4424C86.0382 72.532 85.9809 72.6485 85.9468 72.792L85.585 74.317ZM88.3841 72.298L88.7864 72.3935L88.1837 74.9336L87.7814 74.8382L88.3841 72.298ZM88.6851 71.9248C88.6087 71.9066 88.5486 71.8652 88.5047 71.8004C88.4623 71.736 88.4496 71.6679 88.4666 71.5962C88.4844 71.5213 88.5261 71.4637 88.5917 71.4233C88.6588 71.3832 88.7306 71.3722 88.807 71.3904C88.8865 71.4092 88.9483 71.4511 88.9922 71.5158C89.0361 71.5806 89.05 71.6506 89.0338 71.7258C89.0148 71.7987 88.971 71.8551 88.9023 71.8947C88.8355 71.9333 88.7631 71.9433 88.6851 71.9248ZM89.3315 72.5228L89.7197 72.615L89.6243 73.0173L89.6711 73.0284C89.746 72.9556 89.8116 72.8978 89.8678 72.8552C89.9256 72.8129 90.0094 72.7792 90.1191 72.7542C90.2291 72.7276 90.359 72.7321 90.5087 72.7676C90.7208 72.8179 90.8951 72.9161 91.0318 73.0622C91.1703 73.2071 91.2614 73.3893 91.3048 73.6088C91.3498 73.8286 91.3411 74.0703 91.2785 74.3338C91.2156 74.5989 91.1153 74.8205 90.9775 74.9987C90.84 75.1752 90.6767 75.2979 90.4874 75.3666C90.3001 75.4342 90.1012 75.443 89.8907 75.393C89.7441 75.3583 89.6267 75.3049 89.5383 75.2328C89.4516 75.1612 89.3901 75.0906 89.3539 75.0211C89.3196 74.9503 89.2869 74.8693 89.2559 74.7779L89.2232 74.7702L88.9046 76.1127L88.5023 76.0173L89.3315 72.5228ZM89.4236 73.8838C89.3797 74.076 89.3685 74.2512 89.3903 74.4096C89.412 74.5679 89.467 74.7004 89.5554 74.807C89.6457 74.9124 89.7672 74.9833 89.92 75.0195C90.076 75.0565 90.2185 75.0459 90.3476 74.9876C90.4783 74.9296 90.5881 74.8346 90.6771 74.7026C90.7677 74.5709 90.8348 74.413 90.8784 74.229C90.9214 74.0481 90.9324 73.8803 90.9115 73.7254C90.8906 73.5706 90.8344 73.4395 90.7429 73.3321C90.653 73.2251 90.5293 73.153 90.3718 73.1156C90.2159 73.0786 90.0749 73.0863 89.9488 73.1387C89.823 73.1896 89.7153 73.2793 89.6255 73.4079C89.5376 73.5353 89.4703 73.6939 89.4236 73.8838Z" fill="white"/>
<path d="M21.9912 3.96014L19.5439 5.17842L19.5103 7.91206L17.5954 5.96093L14.9852 6.77375L16.249 4.3496L14.6694 2.11832L17.3655 2.57124L18.9994 0.379416L19.4018 3.08348L21.9912 3.96014Z" fill="#7F80FE"/>
<defs>
<linearGradient id="paint0_linear_1418_3665" x1="137.383" y1="68.0598" x2="84.0522" y2="-25.2093" gradientUnits="userSpaceOnUse">
<stop stop-color="#007BFF"/>
<stop offset="0.5" stop-color="#7F80FF"/>
<stop offset="1" stop-color="#D1D8FF"/>
</linearGradient>
</defs>
</svg>
