<svg width="70" height="66" viewBox="0 0 70 66" fill="none" xmlns="http://www.w3.org/2000/svg">
<rect x="1" width="66" height="66" rx="16" fill="url(#paint0_linear_1357_19666)"/>
<path d="M30.5964 23.0775C38.9568 20.4369 46.9749 19.5434 53.1692 20.2154C56.267 20.5515 58.8853 21.2767 60.859 22.3511C62.8297 23.424 64.1311 24.8288 64.6666 26.5241C65.2021 28.2194 64.9436 30.1169 63.9467 32.1271C62.9482 34.1402 61.2218 36.2387 58.879 38.2932C54.1945 42.4012 47.1175 46.2745 38.7571 48.9151C30.3969 51.5556 22.3797 52.4498 16.1855 51.7778C13.0876 51.4417 10.4692 50.7156 8.49548 49.6412C6.52468 48.5683 5.2224 47.1639 4.68691 45.4685C4.15152 43.7732 4.41079 41.8754 5.40778 39.8653C6.40631 37.8521 8.13298 35.7545 10.4757 33.7001C15.1602 29.592 22.2362 25.7181 30.5964 23.0775Z" stroke="black" stroke-width="0.967693"/>
<rect x="18.4922" y="27.1133" width="32.7101" height="13.7171" fill="white"/>
<g filter="url(#filter0_dn_1357_19666)">
<mask id="path-4-outside-1_1357_19666" maskUnits="userSpaceOnUse" x="10" y="18" width="48" height="30" fill="black">
<rect fill="white" x="10" y="18" width="48" height="30"/>
<path d="M15.2888 46.4643V42.8767H11.5746V22.702H15.2888V19.0722H28.1196V22.702H31.876V42.8767H28.1196V46.4643H15.2888ZM16.9348 40.7242H26.4735V24.8545H16.9348V40.7242ZM39.4537 46.4643V42.8767H35.7395V22.702H39.4537V19.0722H52.2845V22.702H56.0409V42.8767H52.2845V46.4643H39.4537ZM41.0998 40.7242H50.6384V24.8545H41.0998V40.7242Z"/>
</mask>
<path d="M15.2888 46.4643V42.8767H11.5746V22.702H15.2888V19.0722H28.1196V22.702H31.876V42.8767H28.1196V46.4643H15.2888ZM16.9348 40.7242H26.4735V24.8545H16.9348V40.7242ZM39.4537 46.4643V42.8767H35.7395V22.702H39.4537V19.0722H52.2845V22.702H56.0409V42.8767H52.2845V46.4643H39.4537ZM41.0998 40.7242H50.6384V24.8545H41.0998V40.7242Z" fill="white"/>
<path d="M15.2888 46.4643H14.2336V47.5194H15.2888V46.4643ZM15.2888 42.8767H16.3439V41.8215H15.2888V42.8767ZM11.5746 42.8767H10.5194V43.9319H11.5746V42.8767ZM11.5746 22.702V21.6468H10.5194V22.702H11.5746ZM15.2888 22.702V23.7571H16.3439V22.702H15.2888ZM15.2888 19.0722V18.017H14.2336V19.0722H15.2888ZM28.1196 19.0722H29.1747V18.017H28.1196V19.0722ZM28.1196 22.702H27.0644V23.7571H28.1196V22.702ZM31.876 22.702H32.9311V21.6468H31.876V22.702ZM31.876 42.8767V43.9319H32.9311V42.8767H31.876ZM28.1196 42.8767V41.8215H27.0644V42.8767H28.1196ZM28.1196 46.4643V47.5194H29.1747V46.4643H28.1196ZM16.9348 40.7242H15.8797V41.7793H16.9348V40.7242ZM26.4735 40.7242V41.7793H27.5287V40.7242H26.4735ZM26.4735 24.8545H27.5287V23.7993H26.4735V24.8545ZM16.9348 24.8545V23.7993H15.8797V24.8545H16.9348ZM15.2888 46.4643H16.3439V42.8767H15.2888H14.2336V46.4643H15.2888ZM15.2888 42.8767V41.8215H11.5746V42.8767V43.9319H15.2888V42.8767ZM11.5746 42.8767H12.6298V22.702H11.5746H10.5194V42.8767H11.5746ZM11.5746 22.702V23.7571H15.2888V22.702V21.6468H11.5746V22.702ZM15.2888 22.702H16.3439V19.0722H15.2888H14.2336V22.702H15.2888ZM15.2888 19.0722V20.1274H28.1196V19.0722V18.017H15.2888V19.0722ZM28.1196 19.0722H27.0644V22.702H28.1196H29.1747V19.0722H28.1196ZM28.1196 22.702V23.7571H31.876V22.702V21.6468H28.1196V22.702ZM31.876 22.702H30.8208V42.8767H31.876H32.9311V22.702H31.876ZM31.876 42.8767V41.8215H28.1196V42.8767V43.9319H31.876V42.8767ZM28.1196 42.8767H27.0644V46.4643H28.1196H29.1747V42.8767H28.1196ZM28.1196 46.4643V45.4091H15.2888V46.4643V47.5194H28.1196V46.4643ZM16.9348 40.7242V41.7793H26.4735V40.7242V39.669H16.9348V40.7242ZM26.4735 40.7242H27.5287V24.8545H26.4735H25.4184V40.7242H26.4735ZM26.4735 24.8545V23.7993H16.9348V24.8545V25.9097H26.4735V24.8545ZM16.9348 24.8545H15.8797V40.7242H16.9348H17.99V24.8545H16.9348ZM39.4537 46.4643H38.3985V47.5194H39.4537V46.4643ZM39.4537 42.8767H40.5089V41.8215H39.4537V42.8767ZM35.7395 42.8767H34.6844V43.9319H35.7395V42.8767ZM35.7395 22.702V21.6468H34.6844V22.702H35.7395ZM39.4537 22.702V23.7571H40.5089V22.702H39.4537ZM39.4537 19.0722V18.017H38.3985V19.0722H39.4537ZM52.2845 19.0722H53.3397V18.017H52.2845V19.0722ZM52.2845 22.702H51.2293V23.7571H52.2845V22.702ZM56.0409 22.702H57.0961V21.6468H56.0409V22.702ZM56.0409 42.8767V43.9319H57.0961V42.8767H56.0409ZM52.2845 42.8767V41.8215H51.2293V42.8767H52.2845ZM52.2845 46.4643V47.5194H53.3397V46.4643H52.2845ZM41.0998 40.7242H40.0446V41.7793H41.0998V40.7242ZM50.6384 40.7242V41.7793H51.6936V40.7242H50.6384ZM50.6384 24.8545H51.6936V23.7993H50.6384V24.8545ZM41.0998 24.8545V23.7993H40.0446V24.8545H41.0998ZM39.4537 46.4643H40.5089V42.8767H39.4537H38.3985V46.4643H39.4537ZM39.4537 42.8767V41.8215H35.7395V42.8767V43.9319H39.4537V42.8767ZM35.7395 42.8767H36.7947V22.702H35.7395H34.6844V42.8767H35.7395ZM35.7395 22.702V23.7571H39.4537V22.702V21.6468H35.7395V22.702ZM39.4537 22.702H40.5089V19.0722H39.4537H38.3985V22.702H39.4537ZM39.4537 19.0722V20.1274H52.2845V19.0722V18.017H39.4537V19.0722ZM52.2845 19.0722H51.2293V22.702H52.2845H53.3397V19.0722H52.2845ZM52.2845 22.702V23.7571H56.0409V22.702V21.6468H52.2845V22.702ZM56.0409 22.702H54.9857V42.8767H56.0409H57.0961V22.702H56.0409ZM56.0409 42.8767V41.8215H52.2845V42.8767V43.9319H56.0409V42.8767ZM52.2845 42.8767H51.2293V46.4643H52.2845H53.3397V42.8767H52.2845ZM52.2845 46.4643V45.4091H39.4537V46.4643V47.5194H52.2845V46.4643ZM41.0998 40.7242V41.7793H50.6384V40.7242V39.669H41.0998V40.7242ZM50.6384 40.7242H51.6936V24.8545H50.6384H49.5833V40.7242H50.6384ZM50.6384 24.8545V23.7993H41.0998V24.8545V25.9097H50.6384V24.8545ZM41.0998 24.8545H40.0446V40.7242H41.0998H42.1549V24.8545H41.0998Z" fill="black" mask="url(#path-4-outside-1_1357_19666)"/>
</g>
<rect x="17.4375" y="31.3359" width="8.44132" height="6.33099" fill="black"/>
<rect x="41.7031" y="31.3359" width="8.44132" height="6.33099" fill="black"/>
<defs>
<filter id="filter0_dn_1357_19666" x="10.5156" y="18.0156" width="48.6885" height="31.6142" filterUnits="userSpaceOnUse" color-interpolation-filters="sRGB">
<feFlood flood-opacity="0" result="BackgroundImageFix"/>
<feColorMatrix in="SourceAlpha" type="matrix" values="0 0 0 0 0 0 0 0 0 0 0 0 0 0 0 0 0 0 127 0" result="hardAlpha"/>
<feOffset dx="2.11033" dy="2.11033"/>
<feComposite in2="hardAlpha" operator="out"/>
<feColorMatrix type="matrix" values="0 0 0 0 0 0 0 0 0 0 0 0 0 0 0 0 0 0 1 0"/>
<feBlend mode="normal" in2="BackgroundImageFix" result="effect1_dropShadow_1357_19666"/>
<feBlend mode="normal" in="SourceGraphic" in2="BackgroundImageFix" result="shape"/>
<feTurbulence type="fractalNoise" baseFrequency="3.1590642929077148 3.1590642929077148" stitchTiles="stitch" numOctaves="3" result="noise" seed="8496" />
<feColorMatrix in="noise" type="luminanceToAlpha" result="alphaNoise" />
<feComponentTransfer in="alphaNoise" result="coloredNoise1">
<feFuncA type="discrete" tableValues="0 0 0 0 0 0 0 1 1 1 1 1 1 1 1 1 1 1 1 1 1 1 1 1 1 1 1 1 1 1 1 1 1 1 1 1 1 1 1 1 1 1 1 0 0 0 0 0 0 0 0 0 0 0 0 0 0 0 0 0 0 0 0 0 0 0 0 0 0 0 0 0 0 0 0 0 0 0 0 0 0 0 0 0 0 0 0 0 0 0 0 0 0 0 0 0 0 0 0 0 "/>
</feComponentTransfer>
<feComposite operator="in" in2="shape" in="coloredNoise1" result="noise1Clipped" />
<feFlood flood-color="rgba(255, 255, 255, 0.25)" result="color1Flood" />
<feComposite operator="in" in2="noise1Clipped" in="color1Flood" result="color1" />
<feMerge result="effect2_noise_1357_19666">
<feMergeNode in="shape" />
<feMergeNode in="color1" />
</feMerge>
<feBlend mode="normal" in="effect2_noise_1357_19666" in2="effect1_dropShadow_1357_19666" result="effect2_noise_1357_19666"/>
</filter>
<linearGradient id="paint0_linear_1357_19666" x1="34" y1="0" x2="34" y2="66" gradientUnits="userSpaceOnUse">
<stop stop-color="#007BFF"/>
<stop offset="0.317308" stop-color="#E7F3FF"/>
<stop offset="0.7" stop-color="#5DABFF"/>
<stop offset="1" stop-color="#007BFF"/>
</linearGradient>
</defs>
</svg>
