<svg width="71" height="31" viewBox="0 0 71 31" fill="none" xmlns="http://www.w3.org/2000/svg">
<path d="M34.1453 5.34052C43.2968 4.11996 51.7272 4.17881 57.9563 5.25539C61.0724 5.79395 63.6234 6.58557 65.4358 7.58784C67.2531 8.59294 68.2822 9.78311 68.4585 11.1048C68.6348 12.4266 67.9536 13.8448 66.4632 15.2911C64.9768 16.7333 62.7224 18.1659 59.8564 19.5023C54.1273 22.1738 46.0069 24.44 36.8554 25.6606C27.7039 26.8811 19.2734 26.8223 13.0444 25.7457C9.92832 25.2072 7.37729 24.4155 5.56491 23.4133C3.74756 22.4082 2.71846 21.218 2.54218 19.8963C2.3659 18.5745 3.0471 17.1563 4.53751 15.71C6.02386 14.2678 8.27824 12.8352 11.1442 11.4988C16.8734 8.82735 24.9938 6.56108 34.1453 5.34052Z" fill="url(#paint0_linear_2068_30926)" stroke="black" stroke-width="0.5"/>
<path d="M46.0089 22.9458L46.0222 23.0047L46.0819 23.0203L47.2437 23.3247L46.2085 23.9346L46.1553 23.9658L46.1593 24.027L46.2282 25.2257L45.3286 24.4295L45.2832 24.3896L45.2267 24.4113L44.1064 24.8474L44.5864 23.7466L44.6103 23.6903L44.5722 23.6428L43.8106 22.7125L45.007 22.8286L45.0675 22.8344L45.1003 22.7837L45.749 21.7716L46.0089 22.9458Z" fill="white" stroke="black" stroke-width="0.2"/>
<path d="M51.6071 22.9343L51.6111 22.9954L51.6669 23.0194L53.2857 23.7137L51.6513 24.3717L51.595 24.3949L51.5889 24.4557L51.4277 26.2082L50.2973 24.8585L50.2586 24.8114L50.1992 24.8253L48.4809 25.2127L49.4165 23.7218L49.4485 23.6698L49.4179 23.6172L48.5164 22.1025L50.2255 22.5325L50.2844 22.5472L50.3248 22.501L51.4863 21.1772L51.6071 22.9343Z" fill="white" stroke="black" stroke-width="0.2"/>
<path d="M12.2006 11.9041L12.1468 11.8747L12.0967 11.9089L9.84507 13.4464L10.3426 10.7655L10.3546 10.7056L10.3058 10.6685L8.1501 9.00209L10.8522 8.647L10.9121 8.63883L10.9327 8.58201L11.8521 6.01505L13.0241 8.47611L13.0501 8.53168L13.1111 8.53265L15.8373 8.61351L13.8571 10.4891L13.8131 10.5309L13.8304 10.5897L14.596 13.2065L12.2006 11.9041Z" fill="white" stroke="black" stroke-width="0.2"/>
<path d="M46.7256 9.75V11.3496H48.3252V16.6484H46.7256V18.248H40.3281V21.4463H36.6289V9.75H46.7256ZM40.3281 16.1484H44.627V11.8496H40.3281V16.1484Z" fill="#5DABFF" stroke="black" stroke-width="0.5"/>
<path d="M34.6982 9.75V11.3496H36.2979V19.8467H34.6982V21.4463H26.2012V19.8467H24.6016V11.3496H26.2012V9.75H34.6982ZM28.3008 19.3467H32.5996V11.8496H28.3008V19.3467Z" fill="#5DABFF" stroke="black" stroke-width="0.5"/>
<path d="M22.6689 9.75V11.3496H24.2686V19.8467H22.6689V21.4463H14.1719V19.8467H12.5723V11.3496H14.1719V9.75H22.6689ZM16.2715 19.3467H20.5703V11.8496H16.2715V19.3467Z" fill="#5DABFF" stroke="black" stroke-width="0.5"/>
<path d="M5.84375 9.75V19.3467H12.2412V21.4463H2.14453V9.75H5.84375Z" fill="#5DABFF" stroke="black" stroke-width="0.5"/>
<path d="M61.8574 9.75V11.3496H63.457V12.9492H65.0566V14.5488H66.1562V9.75H69.8545V21.4463H66.1562V18.248H64.5566V16.6484H62.957V15.0488H61.8574V21.4463H58.1582V9.75H61.8574Z" fill="#5DABFF" stroke="black" stroke-width="0.5"/>
<path d="M57.8271 9.75V11.8496H54.6289V19.3467H57.8271V21.4463H47.7305V19.3467H50.9297V11.8496H47.7305V9.75H57.8271Z" fill="#5DABFF" stroke="black" stroke-width="0.5"/>
<rect x="0.25" y="-0.25" width="4.87689" height="8.90956" transform="matrix(1 0 0 -1 15.8359 20.2539)" fill="#007BFF" stroke="black" stroke-width="0.5"/>
<rect x="0.25" y="-0.25" width="2.18845" height="2.18845" transform="matrix(1 0 0 -1 18.5254 14.877)" fill="white" stroke="black" stroke-width="0.5"/>
<rect x="0.25" y="-0.25" width="4.87689" height="8.90956" transform="matrix(1 0 0 -1 27.9355 20.2539)" fill="#007BFF" stroke="black" stroke-width="0.5"/>
<rect x="0.25" y="-0.25" width="2.18845" height="2.18845" transform="matrix(1 0 0 -1 30.623 14.877)" fill="white" stroke="black" stroke-width="0.5"/>
<rect x="0.25" y="-0.25" width="2.18845" height="2.18845" transform="matrix(1 0 0 -1 27.9355 17.5645)" fill="white" stroke="black" stroke-width="0.5"/>
<rect x="0.25" y="-0.25" width="2.18845" height="2.18845" transform="matrix(1 0 0 -1 15.8359 17.5645)" fill="white" stroke="black" stroke-width="0.5"/>
<defs>
<linearGradient id="paint0_linear_2068_30926" x1="34.1122" y1="5.09272" x2="36.8885" y2="25.9084" gradientUnits="userSpaceOnUse">
<stop stop-color="white"/>
<stop offset="0.25" stop-color="#C9FFC7"/>
<stop offset="0.8" stop-color="#7CFF71"/>
</linearGradient>
</defs>
</svg>
